<svg width="356" height="176" viewBox="0 0 356 176" fill="none" xmlns="http://www.w3.org/2000/svg">
<g style="mix-blend-mode:darken">
<path d="M85.3594 135.551C85.3594 137.439 85.2617 139.066 85.0664 140.434C84.9362 141.736 84.7083 142.81 84.3828 143.656C84.0573 144.503 83.6341 145.121 83.1133 145.512C82.5924 145.837 82.0065 146 81.3555 146H8.69922C7.26693 146 6.02995 145.87 4.98828 145.609C3.94661 145.349 3.10026 144.861 2.44922 144.145C1.79818 143.363 1.3099 142.257 0.984375 140.824C0.723958 139.392 0.59375 137.536 0.59375 135.258C0.59375 133.109 0.691406 131.286 0.886719 129.789C1.08203 128.227 1.4401 126.859 1.96094 125.688C2.48177 124.451 3.13281 123.279 3.91406 122.172C4.76042 121 5.83464 119.73 7.13672 118.363L29.0117 94.9258C33.3737 90.3685 36.8893 86.2344 39.5586 82.5234C42.2279 78.7474 44.3112 75.3294 45.8086 72.2695C47.306 69.1445 48.3151 66.2799 48.8359 63.6758C49.4219 61.0716 49.7148 58.5977 49.7148 56.2539C49.7148 54.1055 49.3568 52.0872 48.6406 50.1992C47.9896 48.2461 46.9805 46.5534 45.6133 45.1211C44.3112 43.6888 42.651 42.582 40.6328 41.8008C38.6146 40.9544 36.2383 40.5312 33.5039 40.5312C29.6628 40.5312 26.2448 41.0195 23.25 41.9961C20.3203 42.9727 17.7161 44.0794 15.4375 45.3164C13.224 46.4883 11.3685 47.5951 9.87109 48.6367C8.3737 49.6133 7.20182 50.1016 6.35547 50.1016C5.76953 50.1016 5.2487 49.9062 4.79297 49.5156C4.40234 49.125 4.07682 48.474 3.81641 47.5625C3.55599 46.651 3.32812 45.4466 3.13281 43.9492C3.0026 42.3867 2.9375 40.4987 2.9375 38.2852C2.9375 36.7878 2.97005 35.5508 3.03516 34.5742C3.16536 33.5326 3.32812 32.6536 3.52344 31.9375C3.71875 31.1562 3.97917 30.5052 4.30469 29.9844C4.63021 29.3984 5.18359 28.7148 5.96484 27.9336C6.8112 27.1523 8.30859 26.1758 10.457 25.0039C12.6706 23.7669 15.3724 22.5951 18.5625 21.4883C21.7526 20.3164 25.2682 19.3398 29.1094 18.5586C32.9505 17.7773 36.9544 17.3867 41.1211 17.3867C47.6966 17.3867 53.4258 18.2331 58.3086 19.9258C63.2565 21.5534 67.3581 23.8646 70.6133 26.8594C73.8685 29.7891 76.2773 33.3047 77.8398 37.4062C79.4674 41.4427 80.2812 45.8047 80.2812 50.4922C80.2812 54.5938 79.8906 58.6302 79.1094 62.6016C78.3281 66.5729 76.7005 70.8698 74.2266 75.4922C71.7526 80.0495 68.2695 85.1276 63.7773 90.7266C59.2852 96.2604 53.3281 102.706 45.9062 110.062L31.1602 125.199H80.9648C81.6159 125.199 82.2018 125.395 82.7227 125.785C83.3086 126.176 83.7969 126.794 84.1875 127.641C84.5781 128.422 84.8711 129.496 85.0664 130.863C85.2617 132.165 85.3594 133.728 85.3594 135.551ZM184.633 109.672C184.633 112.992 184.275 115.531 183.559 117.289C182.908 118.982 181.996 119.828 180.824 119.828H169.594V142.68C169.594 143.331 169.398 143.917 169.008 144.438C168.617 144.893 167.934 145.284 166.957 145.609C165.98 145.935 164.711 146.163 163.148 146.293C161.586 146.488 159.568 146.586 157.094 146.586C154.75 146.586 152.764 146.488 151.137 146.293C149.574 146.163 148.305 145.935 147.328 145.609C146.417 145.284 145.766 144.893 145.375 144.438C145.049 143.917 144.887 143.331 144.887 142.68V119.828H96.5469C95.6354 119.828 94.8216 119.73 94.1055 119.535C93.3893 119.275 92.7708 118.754 92.25 117.973C91.7943 117.126 91.4362 115.954 91.1758 114.457C90.9805 112.895 90.8828 110.844 90.8828 108.305C90.8828 106.221 90.9154 104.431 90.9805 102.934C91.1107 101.371 91.2734 99.9714 91.4688 98.7344C91.7292 97.4974 92.0547 96.3255 92.4453 95.2188C92.901 94.112 93.4544 92.9401 94.1055 91.7031L133.363 22.4648C133.689 21.8789 134.242 21.3906 135.023 21C135.805 20.5443 136.879 20.1862 138.246 19.9258C139.678 19.6003 141.469 19.3724 143.617 19.2422C145.766 19.112 148.37 19.0469 151.43 19.0469C154.75 19.0469 157.582 19.1445 159.926 19.3398C162.27 19.4701 164.125 19.7305 165.492 20.1211C166.924 20.4466 167.966 20.8698 168.617 21.3906C169.268 21.9115 169.594 22.5299 169.594 23.2461V99.3203H180.824C181.866 99.3203 182.745 100.134 183.461 101.762C184.242 103.324 184.633 105.961 184.633 109.672ZM144.887 41.2148H144.691L111.391 99.3203H144.887V41.2148Z" fill="#0094FF"/>
<path d="M207.344 171.293C207.018 172.139 206.595 172.823 206.074 173.344C205.553 173.865 204.805 174.288 203.828 174.613C202.917 174.939 201.745 175.167 200.312 175.297C198.945 175.492 197.188 175.59 195.039 175.59C192.37 175.59 190.189 175.46 188.496 175.199C186.803 174.939 185.501 174.548 184.59 174.027C183.743 173.507 183.255 172.823 183.125 171.977C182.995 171.195 183.125 170.251 183.516 169.145L241.914 5.17969C242.174 4.33333 242.565 3.64974 243.086 3.12891C243.607 2.54297 244.323 2.08724 245.234 1.76172C246.146 1.4362 247.318 1.20833 248.75 1.07812C250.247 0.882812 252.038 0.785156 254.121 0.785156C256.855 0.785156 259.036 0.915365 260.664 1.17578C262.357 1.4362 263.626 1.82682 264.473 2.34766C265.319 2.86849 265.807 3.55208 265.938 4.39844C266.068 5.17969 265.97 6.1237 265.645 7.23047L207.344 171.293Z" fill="#00D1FF"/>
<path d="M355.934 30.4727C355.934 32.3607 355.868 34.0208 355.738 35.4531C355.608 36.8203 355.413 38.1224 355.152 39.3594C354.957 40.5312 354.664 41.6706 354.273 42.7773C353.883 43.819 353.427 44.9583 352.906 46.1953L311.305 142.582C310.914 143.428 310.393 144.112 309.742 144.633C309.156 145.154 308.31 145.577 307.203 145.902C306.096 146.163 304.664 146.326 302.906 146.391C301.214 146.521 299.098 146.586 296.559 146.586C293.108 146.586 290.374 146.456 288.355 146.195C286.337 146 284.84 145.674 283.863 145.219C282.952 144.698 282.464 144.079 282.398 143.363C282.333 142.582 282.561 141.638 283.082 140.531L327.809 41.8984H274.684C273.316 41.8984 272.275 41.0195 271.559 39.2617C270.908 37.4388 270.582 34.5742 270.582 30.668C270.582 28.7148 270.68 27.0547 270.875 25.6875C271.07 24.2552 271.331 23.0833 271.656 22.1719C272.047 21.2604 272.47 20.6094 272.926 20.2188C273.447 19.8281 274.033 19.6328 274.684 19.6328H349.781C350.953 19.6328 351.93 19.763 352.711 20.0234C353.492 20.2188 354.111 20.707 354.566 21.4883C355.022 22.2695 355.348 23.3763 355.543 24.8086C355.803 26.2409 355.934 28.1289 355.934 30.4727Z" fill="#00F7AD"/>
</g>
</svg>
