<svg width="379" height="172" viewBox="0 0 379 172" fill="none" xmlns="http://www.w3.org/2000/svg">
<g style="mix-blend-mode:darken">
<path d="M75.6719 125.941C75.6719 127.829 75.5742 129.424 75.3789 130.727C75.2487 131.964 75.0208 132.973 74.6953 133.754C74.3698 134.535 73.9466 135.121 73.4258 135.512C72.9701 135.837 72.4492 136 71.8633 136H8.38672C6.23828 136 4.41536 135.382 2.91797 134.145C1.48568 132.842 0.769531 130.759 0.769531 127.895V17.7383C0.769531 14.8737 1.48568 12.8229 2.91797 11.5859C4.41536 10.2839 6.23828 9.63281 8.38672 9.63281H71.4727C72.0586 9.63281 72.5794 9.79557 73.0352 10.1211C73.4909 10.4466 73.8815 11.0326 74.207 11.8789C74.5326 12.6602 74.7604 13.7018 74.8906 15.0039C75.0859 16.2409 75.1836 17.8359 75.1836 19.7891C75.1836 21.612 75.0859 23.1745 74.8906 24.4766C74.7604 25.7135 74.5326 26.7227 74.207 27.5039C73.8815 28.2852 73.4909 28.8711 73.0352 29.2617C72.5794 29.5872 72.0586 29.75 71.4727 29.75H26.3555V60.6094H64.5391C65.125 60.6094 65.6458 60.8047 66.1016 61.1953C66.6224 61.5208 67.0456 62.0742 67.3711 62.8555C67.6966 63.5716 67.9245 64.5807 68.0547 65.8828C68.25 67.1198 68.3477 68.6497 68.3477 70.4727C68.3477 72.3607 68.25 73.9232 68.0547 75.1602C67.9245 76.3971 67.6966 77.4062 67.3711 78.1875C67.0456 78.9036 66.6224 79.4245 66.1016 79.75C65.6458 80.0755 65.125 80.2383 64.5391 80.2383H26.3555V115.883H71.8633C72.4492 115.883 72.9701 116.078 73.4258 116.469C73.9466 116.794 74.3698 117.348 74.6953 118.129C75.0208 118.91 75.2487 119.952 75.3789 121.254C75.5742 122.491 75.6719 124.053 75.6719 125.941ZM162.445 132.973C162.445 133.884 162.12 134.6 161.469 135.121C160.818 135.642 159.776 136 158.344 136.195C156.977 136.456 154.926 136.586 152.191 136.586C149.262 136.586 147.113 136.456 145.746 136.195C144.444 136 143.5 135.642 142.914 135.121C142.393 134.6 142.133 133.884 142.133 132.973V126.039C138.552 129.88 134.451 132.875 129.828 135.023C125.271 137.172 120.193 138.246 114.594 138.246C109.971 138.246 105.707 137.628 101.801 136.391C97.9596 135.219 94.6068 133.461 91.7422 131.117C88.9427 128.708 86.7617 125.746 85.1992 122.23C83.6367 118.715 82.8555 114.613 82.8555 109.926C82.8555 104.848 83.832 100.453 85.7852 96.7422C87.8034 92.9661 90.7656 89.8737 94.6719 87.4648C98.6432 84.9909 103.559 83.168 109.418 81.9961C115.277 80.8242 122.081 80.2383 129.828 80.2383H138.324V74.9648C138.324 72.2305 138.031 69.8542 137.445 67.8359C136.924 65.7526 136.013 64.0273 134.711 62.6602C133.474 61.293 131.781 60.2839 129.633 59.6328C127.549 58.9818 124.945 58.6562 121.82 58.6562C117.719 58.6562 114.04 59.112 110.785 60.0234C107.595 60.9349 104.763 61.944 102.289 63.0508C99.8151 64.1576 97.7318 65.1667 96.0391 66.0781C94.4115 66.9896 93.0768 67.4453 92.0352 67.4453C91.319 67.4453 90.668 67.2174 90.082 66.7617C89.5612 66.306 89.1055 65.6549 88.7148 64.8086C88.3893 63.9622 88.1289 62.9206 87.9336 61.6836C87.7383 60.4466 87.6406 59.0794 87.6406 57.582C87.6406 55.5638 87.8034 53.9688 88.1289 52.7969C88.4544 51.625 89.0729 50.5833 89.9844 49.6719C90.8958 48.6953 92.4909 47.6536 94.7695 46.5469C97.0482 45.375 99.7174 44.3008 102.777 43.3242C105.837 42.3477 109.158 41.5664 112.738 40.9805C116.384 40.3294 120.128 40.0039 123.969 40.0039C130.805 40.0039 136.632 40.6875 141.449 42.0547C146.332 43.3568 150.336 45.4076 153.461 48.207C156.586 50.9414 158.865 54.4896 160.297 58.8516C161.729 63.2135 162.445 68.3893 162.445 74.3789V132.973ZM138.324 95.668H128.949C124.978 95.668 121.592 95.9609 118.793 96.5469C115.993 97.1328 113.715 98.0117 111.957 99.1836C110.199 100.355 108.897 101.788 108.051 103.48C107.27 105.108 106.879 106.996 106.879 109.145C106.879 112.79 108.018 115.655 110.297 117.738C112.641 119.822 115.863 120.863 119.965 120.863C123.415 120.863 126.573 119.984 129.438 118.227C132.367 116.469 135.329 113.897 138.324 110.512V95.668ZM242.383 108.07C242.383 113.018 241.439 117.38 239.551 121.156C237.728 124.932 235.124 128.09 231.738 130.629C228.353 133.168 224.349 135.056 219.727 136.293C215.104 137.595 210.091 138.246 204.688 138.246C201.432 138.246 198.307 137.986 195.312 137.465C192.383 137.009 189.746 136.423 187.402 135.707C185.059 134.926 183.105 134.145 181.543 133.363C179.98 132.582 178.841 131.866 178.125 131.215C177.409 130.499 176.855 129.424 176.465 127.992C176.074 126.495 175.879 124.314 175.879 121.449C175.879 119.561 175.944 118.064 176.074 116.957C176.204 115.785 176.4 114.874 176.66 114.223C176.921 113.507 177.246 113.051 177.637 112.855C178.027 112.595 178.516 112.465 179.102 112.465C179.818 112.465 180.859 112.888 182.227 113.734C183.659 114.516 185.417 115.395 187.5 116.371C189.583 117.348 191.992 118.259 194.727 119.105C197.526 119.952 200.684 120.375 204.199 120.375C206.413 120.375 208.366 120.147 210.059 119.691C211.816 119.236 213.314 118.585 214.551 117.738C215.853 116.892 216.829 115.818 217.48 114.516C218.132 113.214 218.457 111.716 218.457 110.023C218.457 108.07 217.839 106.41 216.602 105.043C215.43 103.611 213.835 102.374 211.816 101.332C209.863 100.29 207.617 99.3138 205.078 98.4023C202.604 97.4909 200.033 96.4818 197.363 95.375C194.759 94.2682 192.188 92.9987 189.648 91.5664C187.174 90.1341 184.928 88.3763 182.91 86.293C180.957 84.2096 179.362 81.7031 178.125 78.7734C176.953 75.8438 176.367 72.3281 176.367 68.2266C176.367 64.0599 177.181 60.2513 178.809 56.8008C180.436 53.2852 182.78 50.2904 185.84 47.8164C188.9 45.3424 192.611 43.4219 196.973 42.0547C201.4 40.6875 206.348 40.0039 211.816 40.0039C214.551 40.0039 217.188 40.1992 219.727 40.5898C222.331 40.9805 224.674 41.4688 226.758 42.0547C228.841 42.6406 230.599 43.2917 232.031 44.0078C233.464 44.6589 234.473 45.2448 235.059 45.7656C235.71 46.2214 236.165 46.7096 236.426 47.2305C236.686 47.6862 236.882 48.2721 237.012 48.9883C237.142 49.6393 237.24 50.4857 237.305 51.5273C237.435 52.5039 237.5 53.7409 237.5 55.2383C237.5 56.9961 237.435 58.4284 237.305 59.5352C237.24 60.6419 237.077 61.5208 236.816 62.1719C236.621 62.8229 236.328 63.2786 235.938 63.5391C235.547 63.7344 235.091 63.832 234.57 63.832C233.984 63.832 233.073 63.5065 231.836 62.8555C230.599 62.1393 229.036 61.3906 227.148 60.6094C225.326 59.8281 223.177 59.112 220.703 58.4609C218.294 57.7448 215.527 57.3867 212.402 57.3867C210.189 57.3867 208.268 57.6146 206.641 58.0703C205.013 58.526 203.678 59.1771 202.637 60.0234C201.595 60.8698 200.814 61.8789 200.293 63.0508C199.772 64.1576 199.512 65.362 199.512 66.6641C199.512 68.6823 200.13 70.375 201.367 71.7422C202.604 73.1094 204.232 74.3138 206.25 75.3555C208.268 76.3971 210.547 77.3737 213.086 78.2852C215.69 79.1966 218.294 80.2057 220.898 81.3125C223.568 82.3542 226.172 83.5911 228.711 85.0234C231.315 86.4557 233.626 88.2135 235.645 90.2969C237.663 92.3802 239.29 94.8867 240.527 97.8164C241.764 100.681 242.383 104.099 242.383 108.07ZM302.301 136L291.754 166.859C291.168 168.487 289.573 169.659 286.969 170.375C284.365 171.091 280.556 171.449 275.543 171.449C272.939 171.449 270.855 171.319 269.293 171.059C267.73 170.863 266.559 170.505 265.777 169.984C264.996 169.464 264.573 168.812 264.508 168.031C264.443 167.25 264.638 166.306 265.094 165.199L276.715 136C275.868 135.609 275.087 135.023 274.371 134.242C273.72 133.396 273.232 132.517 272.906 131.605L242.926 51.5273C242.079 49.2487 241.656 47.5234 241.656 46.3516C241.656 45.1146 242.047 44.1706 242.828 43.5195C243.609 42.8034 244.911 42.3151 246.734 42.0547C248.622 41.7943 251.096 41.6641 254.156 41.6641C256.956 41.6641 259.169 41.7292 260.797 41.8594C262.424 41.9245 263.694 42.1523 264.605 42.543C265.517 42.9336 266.201 43.5521 266.656 44.3984C267.112 45.1797 267.568 46.319 268.023 47.8164L288.531 106.117H288.824L307.574 46.6445C307.965 44.9518 308.453 43.8451 309.039 43.3242C309.69 42.7383 310.732 42.3151 312.164 42.0547C313.596 41.7943 316.103 41.6641 319.684 41.6641C322.483 41.6641 324.794 41.7943 326.617 42.0547C328.505 42.3151 329.872 42.8034 330.719 43.5195C331.63 44.2357 332.086 45.2122 332.086 46.4492C332.086 47.6211 331.826 49.0208 331.305 50.6484L302.301 136ZM375.207 94.5938C375.142 95.2448 374.947 95.8307 374.621 96.3516C374.296 96.8724 373.71 97.3281 372.863 97.7188C372.082 98.0443 370.975 98.3047 369.543 98.5C368.176 98.6953 366.483 98.793 364.465 98.793C362.382 98.793 360.656 98.6953 359.289 98.5C357.922 98.3047 356.815 98.0443 355.969 97.7188C355.188 97.3281 354.634 96.8724 354.309 96.3516C353.983 95.8307 353.788 95.2448 353.723 94.5938L351.184 5.92188C351.184 5.07552 351.379 4.32682 351.77 3.67578C352.16 3.02474 352.844 2.50391 353.82 2.11328C354.862 1.65755 356.229 1.33203 357.922 1.13672C359.68 0.941406 361.861 0.84375 364.465 0.84375C367.069 0.84375 369.217 0.973958 370.91 1.23438C372.603 1.42969 373.938 1.75521 374.914 2.21094C375.956 2.60156 376.672 3.1224 377.062 3.77344C377.518 4.35938 377.746 5.07552 377.746 5.92188L375.207 94.5938ZM378.234 123.207C378.234 125.876 378.007 128.122 377.551 129.945C377.16 131.768 376.411 133.233 375.305 134.34C374.263 135.447 372.863 136.228 371.105 136.684C369.348 137.204 367.134 137.465 364.465 137.465C361.796 137.465 359.549 137.204 357.727 136.684C355.969 136.228 354.569 135.447 353.527 134.34C352.486 133.233 351.737 131.768 351.281 129.945C350.891 128.122 350.695 125.876 350.695 123.207C350.695 120.473 350.891 118.194 351.281 116.371C351.737 114.483 352.486 112.986 353.527 111.879C354.569 110.707 355.969 109.893 357.727 109.438C359.549 108.917 361.796 108.656 364.465 108.656C367.134 108.656 369.348 108.917 371.105 109.438C372.863 109.893 374.263 110.707 375.305 111.879C376.411 112.986 377.16 114.483 377.551 116.371C378.007 118.194 378.234 120.473 378.234 123.207Z" fill="#0094FF"/>
</g>
</svg>
