<svg width="419" height="133" viewBox="0 0 419 133" fill="none" xmlns="http://www.w3.org/2000/svg">
<path d="M71.668 11.1797C71.668 13.1328 71.5703 14.793 71.375 16.1602C71.2448 17.4622 70.9844 18.5039 70.5938 19.2852C70.2682 20.0664 69.8776 20.6523 69.4219 21.043C68.9661 21.4336 68.4453 21.6289 67.8594 21.6289H26.5508V55.6133H65.3203C65.9062 55.6133 66.4271 55.776 66.8828 56.1016C67.3385 56.4271 67.7292 56.9805 68.0547 57.7617C68.4453 58.543 68.7057 59.5846 68.8359 60.8867C69.0312 62.1888 69.1289 63.8164 69.1289 65.7695C69.1289 67.7227 69.0312 69.3503 68.8359 70.6523C68.7057 71.9544 68.4453 73.0286 68.0547 73.875C67.7292 74.7214 67.3385 75.3398 66.8828 75.7305C66.4271 76.056 65.9062 76.2188 65.3203 76.2188H26.5508V123.289C26.5508 124.005 26.3555 124.624 25.9648 125.145C25.5742 125.665 24.8581 126.121 23.8164 126.512C22.8398 126.837 21.5378 127.098 19.9102 127.293C18.2826 127.488 16.1992 127.586 13.6602 127.586C11.1862 127.586 9.10286 127.488 7.41016 127.293C5.78255 127.098 4.48047 126.837 3.50391 126.512C2.52734 126.121 1.8112 125.665 1.35547 125.145C0.964844 124.624 0.769531 124.005 0.769531 123.289V8.73828C0.769531 5.8737 1.48568 3.82292 2.91797 2.58594C4.41536 1.28385 6.23828 0.632812 8.38672 0.632812H67.8594C68.4453 0.632812 68.9661 0.828125 69.4219 1.21875C69.8776 1.54427 70.2682 2.13021 70.5938 2.97656C70.9844 3.75781 71.2448 4.83203 71.375 6.19922C71.5703 7.56641 71.668 9.22656 71.668 11.1797ZM153.852 123.973C153.852 124.884 153.526 125.6 152.875 126.121C152.224 126.642 151.182 127 149.75 127.195C148.383 127.456 146.332 127.586 143.598 127.586C140.668 127.586 138.52 127.456 137.152 127.195C135.85 127 134.906 126.642 134.32 126.121C133.799 125.6 133.539 124.884 133.539 123.973V117.039C129.958 120.88 125.857 123.875 121.234 126.023C116.677 128.172 111.599 129.246 106 129.246C101.378 129.246 97.1133 128.628 93.207 127.391C89.3659 126.219 86.013 124.461 83.1484 122.117C80.349 119.708 78.168 116.746 76.6055 113.23C75.043 109.715 74.2617 105.613 74.2617 100.926C74.2617 95.8477 75.2383 91.4531 77.1914 87.7422C79.2096 83.9661 82.1719 80.8737 86.0781 78.4648C90.0495 75.9909 94.9648 74.168 100.824 72.9961C106.684 71.8242 113.487 71.2383 121.234 71.2383H129.73V65.9648C129.73 63.2305 129.438 60.8542 128.852 58.8359C128.331 56.7526 127.419 55.0273 126.117 53.6602C124.88 52.293 123.188 51.2839 121.039 50.6328C118.956 49.9818 116.352 49.6562 113.227 49.6562C109.125 49.6562 105.447 50.112 102.191 51.0234C99.0013 51.9349 96.1693 52.944 93.6953 54.0508C91.2214 55.1576 89.138 56.1667 87.4453 57.0781C85.8177 57.9896 84.4831 58.4453 83.4414 58.4453C82.7253 58.4453 82.0742 58.2174 81.4883 57.7617C80.9674 57.306 80.5117 56.6549 80.1211 55.8086C79.7956 54.9622 79.5352 53.9206 79.3398 52.6836C79.1445 51.4466 79.0469 50.0794 79.0469 48.582C79.0469 46.5638 79.2096 44.9688 79.5352 43.7969C79.8607 42.625 80.4792 41.5833 81.3906 40.6719C82.3021 39.6953 83.8971 38.6536 86.1758 37.5469C88.4544 36.375 91.1237 35.3008 94.1836 34.3242C97.2435 33.3477 100.564 32.5664 104.145 31.9805C107.79 31.3294 111.534 31.0039 115.375 31.0039C122.211 31.0039 128.038 31.6875 132.855 33.0547C137.738 34.3568 141.742 36.4076 144.867 39.207C147.992 41.9414 150.271 45.4896 151.703 49.8516C153.135 54.2135 153.852 59.3893 153.852 65.3789V123.973ZM129.73 86.668H120.355C116.384 86.668 112.999 86.9609 110.199 87.5469C107.4 88.1328 105.121 89.0117 103.363 90.1836C101.605 91.3555 100.303 92.7878 99.457 94.4805C98.6758 96.1081 98.2852 97.9961 98.2852 100.145C98.2852 103.79 99.4245 106.655 101.703 108.738C104.047 110.822 107.27 111.863 111.371 111.863C114.822 111.863 117.979 110.984 120.844 109.227C123.773 107.469 126.736 104.897 129.73 101.512V86.668ZM233.789 99.0703C233.789 104.018 232.845 108.38 230.957 112.156C229.134 115.932 226.53 119.09 223.145 121.629C219.759 124.168 215.755 126.056 211.133 127.293C206.51 128.595 201.497 129.246 196.094 129.246C192.839 129.246 189.714 128.986 186.719 128.465C183.789 128.009 181.152 127.423 178.809 126.707C176.465 125.926 174.512 125.145 172.949 124.363C171.387 123.582 170.247 122.866 169.531 122.215C168.815 121.499 168.262 120.424 167.871 118.992C167.48 117.495 167.285 115.314 167.285 112.449C167.285 110.561 167.35 109.064 167.48 107.957C167.611 106.785 167.806 105.874 168.066 105.223C168.327 104.507 168.652 104.051 169.043 103.855C169.434 103.595 169.922 103.465 170.508 103.465C171.224 103.465 172.266 103.888 173.633 104.734C175.065 105.516 176.823 106.395 178.906 107.371C180.99 108.348 183.398 109.259 186.133 110.105C188.932 110.952 192.09 111.375 195.605 111.375C197.819 111.375 199.772 111.147 201.465 110.691C203.223 110.236 204.72 109.585 205.957 108.738C207.259 107.892 208.236 106.818 208.887 105.516C209.538 104.214 209.863 102.716 209.863 101.023C209.863 99.0703 209.245 97.4102 208.008 96.043C206.836 94.6107 205.241 93.3737 203.223 92.332C201.27 91.2904 199.023 90.3138 196.484 89.4023C194.01 88.4909 191.439 87.4818 188.77 86.375C186.165 85.2682 183.594 83.9987 181.055 82.5664C178.581 81.1341 176.335 79.3763 174.316 77.293C172.363 75.2096 170.768 72.7031 169.531 69.7734C168.359 66.8438 167.773 63.3281 167.773 59.2266C167.773 55.0599 168.587 51.2513 170.215 47.8008C171.842 44.2852 174.186 41.2904 177.246 38.8164C180.306 36.3424 184.017 34.4219 188.379 33.0547C192.806 31.6875 197.754 31.0039 203.223 31.0039C205.957 31.0039 208.594 31.1992 211.133 31.5898C213.737 31.9805 216.081 32.4688 218.164 33.0547C220.247 33.6406 222.005 34.2917 223.438 35.0078C224.87 35.6589 225.879 36.2448 226.465 36.7656C227.116 37.2214 227.572 37.7096 227.832 38.2305C228.092 38.6862 228.288 39.2721 228.418 39.9883C228.548 40.6393 228.646 41.4857 228.711 42.5273C228.841 43.5039 228.906 44.7409 228.906 46.2383C228.906 47.9961 228.841 49.4284 228.711 50.5352C228.646 51.6419 228.483 52.5208 228.223 53.1719C228.027 53.8229 227.734 54.2786 227.344 54.5391C226.953 54.7344 226.497 54.832 225.977 54.832C225.391 54.832 224.479 54.5065 223.242 53.8555C222.005 53.1393 220.443 52.3906 218.555 51.6094C216.732 50.8281 214.583 50.112 212.109 49.4609C209.701 48.7448 206.934 48.3867 203.809 48.3867C201.595 48.3867 199.674 48.6146 198.047 49.0703C196.419 49.526 195.085 50.1771 194.043 51.0234C193.001 51.8698 192.22 52.8789 191.699 54.0508C191.178 55.1576 190.918 56.362 190.918 57.6641C190.918 59.6823 191.536 61.375 192.773 62.7422C194.01 64.1094 195.638 65.3138 197.656 66.3555C199.674 67.3971 201.953 68.3737 204.492 69.2852C207.096 70.1966 209.701 71.2057 212.305 72.3125C214.974 73.3542 217.578 74.5911 220.117 76.0234C222.721 77.4557 225.033 79.2135 227.051 81.2969C229.069 83.3802 230.697 85.8867 231.934 88.8164C233.171 91.681 233.789 95.099 233.789 99.0703ZM295.562 115.086C295.562 117.951 295.367 120.164 294.977 121.727C294.651 123.224 294.195 124.298 293.609 124.949C293.023 125.535 292.145 126.089 290.973 126.609C289.866 127.065 288.531 127.456 286.969 127.781C285.471 128.172 283.811 128.465 281.988 128.66C280.23 128.855 278.44 128.953 276.617 128.953C271.734 128.953 267.503 128.335 263.922 127.098C260.341 125.861 257.379 123.973 255.035 121.434C252.691 118.829 250.966 115.574 249.859 111.668C248.753 107.762 248.199 103.139 248.199 97.8008V53.1719H237.75C236.513 53.1719 235.569 52.4232 234.918 50.9258C234.267 49.3633 233.941 46.7917 233.941 43.2109C233.941 41.3229 234.007 39.7279 234.137 38.4258C234.332 37.1237 234.592 36.1146 234.918 35.3984C235.243 34.6172 235.634 34.0638 236.09 33.7383C236.611 33.4128 237.197 33.25 237.848 33.25H248.199V13.8164C248.199 13.1654 248.362 12.5794 248.688 12.0586C249.078 11.5378 249.729 11.1146 250.641 10.7891C251.617 10.3984 252.887 10.138 254.449 10.0078C256.077 9.8125 258.062 9.71484 260.406 9.71484C262.815 9.71484 264.801 9.8125 266.363 10.0078C267.991 10.138 269.26 10.3984 270.172 10.7891C271.083 11.1146 271.734 11.5378 272.125 12.0586C272.516 12.5794 272.711 13.1654 272.711 13.8164V33.25H291.656C292.307 33.25 292.861 33.4128 293.316 33.7383C293.837 34.0638 294.26 34.6172 294.586 35.3984C294.911 36.1146 295.139 37.1237 295.27 38.4258C295.465 39.7279 295.562 41.3229 295.562 43.2109C295.562 46.7917 295.237 49.3633 294.586 50.9258C293.935 52.4232 292.991 53.1719 291.754 53.1719H272.711V94.0898C272.711 98.8424 273.46 102.423 274.957 104.832C276.454 107.176 279.124 108.348 282.965 108.348C284.267 108.348 285.439 108.25 286.48 108.055C287.522 107.794 288.434 107.534 289.215 107.273C290.061 106.948 290.745 106.688 291.266 106.492C291.852 106.232 292.372 106.102 292.828 106.102C293.219 106.102 293.577 106.232 293.902 106.492C294.293 106.688 294.586 107.143 294.781 107.859C294.977 108.51 295.139 109.422 295.27 110.594C295.465 111.766 295.562 113.263 295.562 115.086ZM379.744 133L376.344 131.6C375.544 121.2 372.144 110.2 366.344 98.8L368.944 92.4C375.144 99.4 379.544 105.4 382.144 110.4L401.944 62L355.544 83.8L377.144 14.6L385.544 16.6L369.144 68.8L418.144 45.4L389.744 113.4C395.344 111.8 403.144 110.6 412.144 110.2L409.544 116.6C397.544 120.6 387.544 126 379.744 133Z" fill="#FFD130"/>
</svg>
